<?xml version="1.0" encoding="UTF-8" standalone="no"?>
<svg
   xmlns:dc="http://purl.org/dc/elements/1.1/"
   xmlns:cc="http://creativecommons.org/ns#"
   xmlns:rdf="http://www.w3.org/1999/02/22-rdf-syntax-ns#"
   xmlns:svg="http://www.w3.org/2000/svg"
   xmlns="http://www.w3.org/2000/svg"
   xmlns:sodipodi="http://sodipodi.sourceforge.net/DTD/sodipodi-0.dtd"
   xmlns:inkscape="http://www.inkscape.org/namespaces/inkscape"
   sodipodi:docname="jólatré.svg"
   inkscape:version="1.0.1 (3bc2e813f5, 2020-09-07)"
   id="svg8"
   version="1.1"
   viewBox="0 0 210 297"
   height="297mm"
   width="210mm">
  <defs
     id="defs2">
    <rect
       x="-242.28274"
       y="75.973214"
       width="48.002977"
       height="13.985119"
       id="rect997" />
  </defs>
  <sodipodi:namedview
     id="base"
     pagecolor="#ffffff"
     bordercolor="#666666"
     borderopacity="1.0"
     inkscape:pageopacity="0.0"
     inkscape:pageshadow="2"
     inkscape:zoom="0.7"
     inkscape:cx="-118.99732"
     inkscape:cy="314.31213"
     inkscape:document-units="mm"
     inkscape:current-layer="layer1"
     inkscape:document-rotation="0"
     showgrid="false"
     inkscape:window-width="1920"
     inkscape:window-height="1027"
     inkscape:window-x="-8"
     inkscape:window-y="-8"
     inkscape:window-maximized="1"
     inkscape:snap-grids="true"
     inkscape:snap-to-guides="true"
     inkscape:snap-page="false"
     showborder="false" />
  <metadata
     id="metadata5">
    <rdf:RDF>
      <cc:Work
         rdf:about="">
        <dc:format>image/svg+xml</dc:format>
        <dc:type
           rdf:resource="http://purl.org/dc/dcmitype/StillImage" />
        <dc:title></dc:title>
      </cc:Work>
    </rdf:RDF>
  </metadata>
  <g
     inkscape:label="Layer 1"
     inkscape:groupmode="layer"
     id="layer1">
    <circle
       style="fill:none;stroke:#000000;stroke-width:0.242283;stroke-opacity:1"
       id="path863-9"
       cx="4.3472686"
       cy="212.41634"
       r="4.5785875" />
    <g
       id="box9321"
       transform="matrix(1.1508779,0,0,1.1508779,-270.20998,5.7296989)">
      <path
         style="fill:none;stroke:#0000ff;stroke-width:0.1;stroke-linecap:butt;stroke-linejoin:miter"
         id="box9321-lid"
         d="m 0,0 h 4.42143 v -3.1 h 8.84286 V 0 h 4.42143 4.42143 v -3.1 h 8.84286 V 0 h 4.42143 4.42143 v -3.1 h 8.84286 V 0 h 4.42143 4.42143 v -3.1 h 8.84286 V 0 h 4.42143 4.42143 v -3.1 h 8.84286 V 0 h 4.42143 4.42143 v -3.1 h 8.84286 V 0 h 4.42143 4.42143 v -3.1 h 8.84286 V 0 h 4.42143 v 2.1125 h 3.1 v 4.225 h -3.1 V 8.45 10.5625 h 3.1 v 4.225 h -3.1 V 16.9 19.0125 h 3.1 v 4.225 h -3.1 v 2.1125 2.1125 h 3.1 v 4.225 h -3.1 V 33.8 h -4.42143 v 3.1 h -8.84286 v -3.1 h -4.42143 -4.42143 v 3.1 H 92.85003 V 33.8 H 88.4286 84.00717 v 3.1 h -8.84286 v -3.1 h -4.42143 -4.42143 v 3.1 h -8.84286 v -3.1 h -4.42143 -4.42143 v 3.1 h -8.84286 v -3.1 h -4.42143 -4.42143 v 3.1 h -8.84286 v -3.1 h -4.42143 -4.42143 v 3.1 H 4.42143 V 33.8 H 0 v -2.1125 h -3.1 v -4.225 H 0 V 25.35 23.2375 h -3.1 v -4.225 H 0 V 16.9 14.7875 h -3.1 v -4.225 H 0 V 8.45 6.3375 H -3.1 V 2.1125 H 0 V 0" />
      <path
         style="fill:none;stroke:#0000ff;stroke-width:0.1;stroke-linecap:butt;stroke-linejoin:miter"
         id="box9321-longside1"
         d="M -3.1,36.9 V 33.8 H 0 m 126.9,0 v 3.1 3.19 h -3.1 v 6.38 h 3.1 v 3.19 3.19 h -3.1 v 6.38 h 3.1 v 3.19 3.19 h -3.1 v 6.38 h 3.1 v 3.19 3.19 h -3.1 v 6.38 h 3.1 v 3.19 3.19 h -3.1 v 6.38 h 3.1 v 3.19 3.1 h -3.1 -4.42143 v -3.1 h -8.84286 v 3.1 h -4.42143 -4.42143 v -3.1 h -8.84286 v 3.1 h -4.42143 -4.42143 v -3.1 h -8.84286 v 3.1 h -4.42143 -4.42143 v -3.1 h -8.84286 v 3.1 h -4.42143 -4.42143 v -3.1 h -8.84286 v 3.1 H 35.3714 30.94997 v -3.1 h -8.84286 v 3.1 h -4.42143 -4.42143 v -3.1 H 4.42139 v 3.1 H -4e-5 h -3.1 v -3.1 -3.19 h 3.1 v -6.38 h -3.1 v -3.19 -3.19 h 3.1 v -6.38 h -3.1 v -3.19 -3.19 h 3.1 v -6.38 h -3.1 v -3.19 -3.19 h 3.1 v -6.38 h -3.1 v -3.19 -3.19 h 3.1 v -6.38 h -3.1 V 36.9" />
      <path
         style="fill:none;stroke:#0000ff;stroke-width:0.1;stroke-linecap:butt;stroke-linejoin:miter"
         id="box9321-base"
         d="m 0,103.8 m 123.8,0 v 2.1125 h 3.1 v 4.225 h -3.1 v 2.1125 2.1125 h 3.1 v 4.225 h -3.1 v 2.1125 2.1125 h 3.1 v 4.225 h -3.1 v 2.1125 2.1125 h 3.1 v 4.225 h -3.1 V 137.6 h -4.42143 v 3.1 h -8.84286 v -3.1 h -4.42143 -4.42143 v 3.1 h -8.84286 v -3.1 h -4.42143 -4.42143 v 3.1 h -8.84286 v -3.1 h -4.42143 -4.42143 v 3.1 h -8.84286 v -3.1 h -4.42143 -4.42143 v 3.1 h -8.84286 v -3.1 H 35.3714 30.94997 v 3.1 h -8.84286 v -3.1 h -4.42143 -4.42143 v 3.1 H 4.42139 v -3.1 H -4e-5 v -2.1125 h -3.1 v -4.225 h 3.1 v -2.1125 -2.1125 h -3.1 v -4.225 h 3.1 V 120.7 118.5875 h -3.1 v -4.225 h 3.1 v -2.1125 -2.1125 h -3.1 v -4.225 h 3.1 V 103.8" />
      <path
         style="fill:none;stroke:#0000ff;stroke-width:0.1;stroke-linecap:butt;stroke-linejoin:miter"
         id="box9321-longside2"
         d="m -3.1,140.7 v -3.1 H 0 m 126.9,0 v 3.1 3.19 h -3.1 v 6.38 h 3.1 v 3.19 3.19 h -3.1 v 6.38 h 3.1 v 3.19 3.19 h -3.1 v 6.38 h 3.1 v 3.19 3.19 h -3.1 v 6.38 h 3.1 v 3.19 3.19 h -3.1 v 6.38 h 3.1 v 3.19 3.1 h -3.1 -4.42143 v -3.1 h -8.84286 v 3.1 h -4.42143 -4.42143 v -3.1 h -8.84286 v 3.1 h -4.42143 -4.42143 v -3.1 h -8.84286 v 3.1 h -4.42143 -4.42143 v -3.1 h -8.84286 v 3.1 h -4.42143 -4.42143 v -3.1 h -8.84286 v 3.1 H 35.3714 30.94997 v -3.1 h -8.84286 v 3.1 h -4.42143 -4.42143 v -3.1 H 4.42139 v 3.1 H -4e-5 h -3.1 v -3.1 -3.19 h 3.1 v -6.38 h -3.1 v -3.19 -3.19 h 3.1 v -6.38 h -3.1 v -3.19 -3.19 h 3.1 v -6.38 h -3.1 v -3.19 -3.19 h 3.1 v -6.38 h -3.1 v -3.19 -3.19 h 3.1 v -6.38 h -3.1 v -3.19" />
      <path
         style="fill:none;stroke:#0000ff;stroke-width:0.1;stroke-linecap:butt;stroke-linejoin:miter"
         id="box9321-endface2"
         d="m 123.8,0 h 3.1 3.19 v -3.1 h 6.38 V 0 h 3.19 3.19 v -3.1 h 6.38 V 0 h 3.19 3.19 v -3.1 h 6.38 V 0 h 3.19 3.19 v -3.1 h 6.38 V 0 h 3.19 3.19 v -3.1 h 6.38 V 0 h 3.19 3.1 v 2.1125 h -3.1 v 4.225 h 3.1 V 8.45 10.5625 h -3.1 v 4.225 h 3.1 V 16.9 19.0125 h -3.1 v 4.225 h 3.1 v 2.1125 2.1125 h -3.1 v 4.225 h 3.1 V 33.8 h -3.1 -3.19 v 3.1 h -6.38 v -3.1 h -3.19 -3.19 v 3.1 h -6.38 v -3.1 h -3.19 -3.19 v 3.1 h -6.38 v -3.1 h -3.19 -3.19 v 3.1 h -6.38 v -3.1 h -3.19 -3.19 v 3.1 h -6.38 v -3.1 h -3.19 -3.1" />
      <path
         style="fill:none;stroke:#0000ff;stroke-width:0.1;stroke-linecap:butt;stroke-linejoin:miter"
         id="box9321-endface1"
         d="m 123.8,103.8 m 3.1,0 h 3.19 v -3.1 h 6.38 v 3.1 h 3.19 3.19 v -3.1 h 6.38 v 3.1 h 3.19 3.19 v -3.1 h 6.38 v 3.1 h 3.19 3.19 v -3.1 h 6.38 v 3.1 h 3.19 3.19 v -3.1 h 6.38 v 3.1 h 3.19 3.1 v 2.1125 h -3.1 v 4.225 h 3.1 v 2.1125 2.1125 h -3.1 v 4.225 h 3.1 v 2.1125 2.1125 h -3.1 v 4.225 h 3.1 v 2.1125 2.1125 h -3.1 v 4.225 h 3.1 V 137.6 h -3.1 -3.19 v 3.1 h -6.38 v -3.1 h -3.19 -3.19 v 3.1 h -6.38 v -3.1 h -3.19 -3.19 v 3.1 h -6.38 v -3.1 h -3.19 -3.19 v 3.1 h -6.38 v -3.1 h -3.19 -3.19 v 3.1 h -6.38 v -3.1 h -3.19 -3.1" />
    </g>
    <circle
       style="fill:none;stroke:#000000;stroke-width:0.264583;stroke-opacity:1"
       id="path993"
       cx="-89.000755"
       cy="143.79102"
       r="15" />
    <text
       xml:space="preserve"
       id="text995"
       style="font-style:normal;font-weight:normal;font-size:10.5833px;line-height:1.25;font-family:sans-serif;letter-spacing:0px;word-spacing:0px;white-space:pre;shape-inside:url(#rect997);fill:#000000;fill-opacity:1;stroke:none;"
       transform="matrix(1.8232831,0,0,1.8232831,202.89946,-67.524303)"><tspan
         x="-242.2832"
         y="85.628121"><tspan>ардуино</tspan></tspan></text>
    <path
       style="fill:#000000;stroke-width:0.408281"
       d="m -248.87803,201.2558 c 1.06331,-1.73293 1.61921,-2.26813 2.24469,-2.16118 0.45725,0.0783 1.0966,0.16096 1.42077,0.18395 0.32415,0.0239 1.22205,0.91813 1.99526,1.98925 0.77329,1.07109 1.70522,2.03281 2.07103,2.13722 0.48366,0.13789 0.66511,0.58718 0.66511,1.64625 0,1.21077 -0.24711,1.65354 -1.46565,2.62475 -1.99342,1.5889 -4.19505,1.54805 -6.53616,-0.12135 -2.34336,-1.67101 -2.42602,-2.98897 -0.39505,-6.29885 z m 6.15213,-5.22738 c 0.68588,0.15314 1.84566,0.43584 2.57729,0.62787 0.7316,0.19217 1.44784,0.36247 1.59173,0.37878 0.14401,0.0155 0.36832,0.27684 0.49881,0.57899 0.13067,0.30217 0.61144,0.68855 1.06868,0.85858 0.45726,0.17012 1.01969,0.76872 1.24986,1.33033 0.38081,0.9292 0.33592,1.02818 -0.49878,1.09956 -2.22114,0.19004 -3.12174,0.0213 -3.6634,-0.68873 -0.3187,-0.41734 -1.02839,-0.91863 -1.57711,-1.11392 -1.0097,-0.3594 -2.4941,-2.0886 -2.4941,-2.9054 0,-0.24472 0.56114,-0.31937 1.24702,-0.1662 z m 5.1545,6.31753 c 1.14318,-0.33745 2.22813,-0.77089 2.41104,-0.96317 0.97208,-1.02191 2.79087,-1.55689 3.6396,-1.07051 1.19649,0.6857 3.71606,0.64932 4.60339,-0.0663 1.03674,-0.83633 3.42122,-0.5653 5.14635,0.58496 1.79094,1.19412 2.83146,1.25642 3.86898,0.23178 0.65461,-0.64655 1.45933,-0.69791 5.22597,-0.33362 4.50702,0.43584 7.49915,0.43162 7.79278,-0.008 0.39562,-0.59628 -1.68805,-4.92195 -3.6913,-7.66324 -1.2088,-1.65417 -2.59711,-3.64038 -3.08509,-4.41383 -0.48805,-0.77347 -1.4485,-2.26138 -2.13438,-3.3065 -0.68587,-1.04514 -1.24704,-2.0119 -1.24704,-2.14835 0,-0.42078 2.78262,0.37469 3.57489,1.02189 0.41152,0.33621 0.74825,0.81279 0.74825,1.0591 0,0.52534 0.19469,0.81552 3.20452,4.77606 1.25537,1.65188 3.14188,4.30628 4.19218,5.89864 l 1.90961,2.89519 2.24725,-0.47157 c 1.23597,-0.25928 3.29154,-0.94003 4.56791,-1.51263 1.27635,-0.57264 2.84765,-1.01284 3.49176,-0.97835 l 1.17112,0.0628 -1.3302,0.34893 c -1.44657,0.37942 -4.82511,2.46313 -4.81686,2.97079 0.001,0.17286 0.14689,0.65259 0.32018,1.06611 0.26035,0.621 1.40251,0.76271 6.56273,0.81399 3.43625,0.0342 6.9905,-0.0484 7.8984,-0.18436 l 1.65069,-0.24631 -0.81928,-1.02675 c -0.45068,-0.56469 -0.57263,-0.89236 -0.27111,-0.72808 0.3016,0.16425 1.46292,0.56982 2.58076,0.90132 1.72388,0.51122 1.94842,0.69528 1.47914,1.21254 -0.30431,0.33542 -0.79363,1.37704 -1.08736,2.31472 l -0.53407,1.70489 -8.97573,0.12276 c -9.71355,0.13293 -11.96052,0.64131 -12.95609,2.93151 -0.25902,0.59579 -0.86235,1.23136 -1.3408,1.41238 -0.51328,0.19412 -2.79524,3.30224 -5.56567,7.58042 -2.5826,3.98823 -4.88455,7.25131 -5.11544,7.25131 -0.50567,0 -1.0962,-3.8765 -0.793,-5.20532 0.31321,-1.37259 2.73469,-5.72762 3.37308,-6.06648 0.61435,-0.32604 1.59412,-1.67965 3.2322,-4.46541 0.76644,-1.30337 1.00919,-2.06105 0.77402,-2.41552 -0.22699,-0.34222 -2.7921,-0.41196 -7.60139,-0.20666 -8.38279,0.35774 -9.43066,0.4961 -11.28228,1.48983 -0.8461,0.45406 -1.53984,0.56285 -1.82905,0.28689 -0.25611,-0.24445 -2.0832,-0.44807 -4.05988,-0.45231 -4.25941,-0.007 -8.73035,-0.94941 -7.57564,-1.59328 0.92882,-0.5179 0.6503,-1.24677 -0.6397,-1.67384 -1.53606,-0.50851 -1.18893,-1.06386 1.08456,-1.73503 z m 12.55382,-0.84763 c 1.02805,0.23602 1.09417,0.18925 0.5665,-0.40112 -0.3286,-0.36756 -0.89571,-0.55074 -1.26029,-0.40704 -0.8543,0.33672 -0.73023,0.48128 0.69379,0.80816 z m -0.64551,5.34088 c 0.17209,0 0.31292,-0.22568 0.31292,-0.50125 0,-0.27568 -0.23335,-0.50128 -0.51842,-0.50128 -0.28517,0 -0.426,0.22542 -0.31296,0.50128 0.11299,0.27571 0.34636,0.50125 0.51846,0.50125 z m -11.76862,11.86002 0.47508,-1.36674 0.89813,0.94761 c 0.49394,0.52118 1.08528,0.84816 1.31401,0.72656 0.22888,-0.12172 0.99851,0.47453 1.71062,1.32462 0.71209,0.85011 1.45245,1.54567 1.64525,1.54567 0.36712,0 4.06055,4.41153 5.20707,6.21945 0.36581,0.57683 1.30214,1.57157 2.08066,2.21056 l 1.41557,1.16181 1.68251,-1.91369 c 0.9254,-1.05254 2.66787,-3.43625 3.87219,-5.29718 1.20432,-1.86093 2.44822,-3.3835 2.76422,-3.3835 0.39297,0 0.68197,0.63778 0.91437,2.01761 0.32174,1.91073 0.27722,2.12975 -0.84024,4.13536 -0.64897,1.16479 -1.62101,3.19283 -2.16011,4.50678 -0.5391,1.31395 -1.30257,2.64777 -1.69661,2.96408 -0.39405,0.31633 -1.5023,1.46788 -2.46283,2.55909 -1.24489,1.41425 -1.86558,1.84069 -2.16158,1.48513 -0.22832,-0.27435 -1.09093,-0.64594 -1.91683,-0.82576 -1.36514,-0.29723 -1.57547,-0.53667 -2.31359,-2.63389 -1.1831,-3.36154 -1.86792,-4.51914 -3.78266,-6.39374 -0.94242,-0.9227 -2.93002,-3.24034 -4.41692,-5.15038 -2.68521,-3.44931 -2.70022,-3.4819 -2.22831,-4.83945 z m 1.08082,-30.9078 c 0.63126,0 4.54824,-5.5225 5.3474,-7.53924 0.58505,-1.47648 1.27344,-2.38806 2.32357,-3.07705 l 1.49225,-0.97895 0.5862,1.0912 c 0.76924,1.43188 0.74662,1.66338 -0.29847,3.05785 -2.13729,2.85183 -3.38904,4.91793 -3.60713,5.95384 -0.41211,1.95712 -2.44837,4.22214 -4.071,4.52841 -1.33279,0.2516 -1.50865,0.16169 -1.77886,-0.90986 -0.38151,-1.51246 -0.37976,-2.1262 0.004,-2.1262 z m 11.75944,-15.91358 1.75635,-1.9988 1.48359,0.87435 c 0.94882,0.55916 2.10699,1.90837 3.21314,3.74306 l 1.72962,2.86873 -0.84932,1.18641 -0.84931,1.18642 -1.21041,-1.36183 c -0.6657,-0.74899 -1.583,-1.86932 -2.03836,-2.48966 -0.96998,-1.32121 -1.37225,-1.38264 -2.63075,-0.4017 -0.81785,0.63747 -1.01878,0.63402 -1.64622,-0.0283 -0.3931,-0.41497 -0.71468,-0.94017 -0.71468,-1.16712 0,-0.22703 0.79035,-1.31205 1.75635,-2.4114 z m 47.71327,32.76828 c 0.53856,-0.41977 1.23875,-1.36037 1.55605,-2.09028 0.56972,-1.31064 0.61436,-1.32387 3.62429,-1.07173 1.67609,0.14058 6.13354,0.33132 9.90548,0.4242 5.26058,0.12952 6.8222,0.0278 6.70392,-0.43665 -0.0853,-0.33484 0.21534,-0.74542 0.67261,-0.91836 0.60683,-0.22965 1.18822,0.0816 2.18525,1.17052 l 1.3585,1.48333 -1.02947,2.14209 -1.02942,2.14207 -5.03307,-0.31939 c -2.76815,-0.17578 -6.60432,-0.44341 -8.52478,-0.59488 -1.92048,-0.15163 -5.18966,-0.36408 -7.26484,-0.47239 -2.07518,-0.10845 -3.84746,-0.3091 -3.93836,-0.44612 -0.0911,-0.13705 0.27532,-0.59263 0.81384,-1.01241 z m 15.35572,4.71701 c 0.35377,-0.28542 1.17684,-0.51888 1.82902,-0.51888 0.9641,0 1.18582,0.18726 1.18582,1.00247 0,0.88101 -0.22174,1.00255 -1.82904,1.00255 -1.87431,0 -2.32615,-0.56624 -1.1858,-1.48614 z m 3.60185,0.72405 c 0.44957,-0.94115 1.89182,-1.54985 3.56984,-1.50668 1.45372,0.0373 1.67609,0.18259 1.76901,1.15578 0.10269,1.07566 0.008,1.11299 -2.74351,1.11299 -1.56741,0 -2.84755,-0.0564 -2.84475,-0.12548 0.001,-0.0687 0.11509,-0.35549 0.2495,-0.63681 z"
       id="path21" />
    <g
       id="g1076">
      <g
         id="g79"
         transform="matrix(1.1585609,0,0,1.1017767,-41.688458,-28.466167)">
        <path
           style="fill:none;stroke:#000000;stroke-width:0.264583px;stroke-linecap:butt;stroke-linejoin:miter;stroke-opacity:1"
           d="M 106.10371,9.4615985 33.261905,77.485118 86.17857,76.729167 24.190476,127 l 61.988094,-4.91369 -73.32738,51.40476 69.925595,-4.15774 -72.193452,60.85417 82.776784,-10.20536 -1.133927,39.30952 13.98512,0.37798"
           id="path10"
           sodipodi:nodetypes="ccccccccccc" />
      </g>
      <path
         sodipodi:type="star"
         style="font-variation-settings:normal;opacity:1;vector-effect:none;fill:none;fill-opacity:1;fill-rule:evenodd;stroke:#000000;stroke-width:0.36335px;stroke-linecap:butt;stroke-linejoin:miter;stroke-miterlimit:4;stroke-dasharray:none;stroke-dashoffset:0;stroke-opacity:1;stop-color:#000000;stop-opacity:1"
         id="path87"
         sodipodi:sides="5"
         sodipodi:cx="81.820925"
         sodipodi:cy="-30.308779"
         sodipodi:r1="18.42827"
         sodipodi:r2="6.595037"
         sodipodi:arg1="0.35299039"
         sodipodi:arg2="0.98130892"
         inkscape:flatsided="false"
         inkscape:rounded="0"
         inkscape:randomized="0"
         d="m 99.112963,-23.938027 -13.625628,-0.888787 -4.381823,12.932414 -3.365264,-13.233394 -13.653514,-0.171025 11.545781,-7.289899 -4.056513,-13.038114 10.500949,8.727988 11.146451,-7.886972 -5.055837,12.684092 z"
         inkscape:transform-center-x="0.22107249"
         inkscape:transform-center-y="1.5481598" />
      <circle
         style="fill:none;stroke:#000000;stroke-width:0.242283;stroke-opacity:1"
         id="path863"
         cx="20.76309"
         cy="47.458408"
         r="4.5785875" />
      <circle
         style="fill:none;stroke:#000000;stroke-width:0.242283;stroke-opacity:1"
         id="path863-3"
         cx="15.850206"
         cy="100.5686"
         r="4.5785875" />
      <circle
         style="fill:none;stroke:#000000;stroke-width:0.242283;stroke-opacity:1"
         id="path863-75"
         cx="8.2631626"
         cy="151.47522"
         r="4.5785875" />
      <circle
         style="fill:none;stroke:#000000;stroke-width:0.242283;stroke-opacity:1"
         id="path863-5"
         cx="81.830101"
         cy="-30.825773"
         r="4.5785875" />
      <path
         style="fill:none;stroke:#000000;stroke-width:0.298929px;stroke-linecap:butt;stroke-linejoin:miter;stroke-opacity:1"
         d="m 81.239152,-18.041598 84.640988,74.94672 -61.30718,-0.83289 71.81698,55.387228 -71.81698,-5.41379 84.95423,56.63656 -81.01305,-4.5809 83.64051,67.04771 -95.901949,-11.24403 1.313722,43.31032 -16.20261,0.41646"
         id="path10-7"
         sodipodi:nodetypes="ccccccccccc" />
      <circle
         style="fill:none;stroke:#000000;stroke-width:0.242283;stroke-opacity:1"
         id="path863-4"
         cx="-141.96454"
         cy="47.458393"
         r="4.5785875"
         transform="scale(-1,1)" />
      <circle
         style="fill:none;stroke:#000000;stroke-width:0.242283;stroke-opacity:1"
         id="path863-3-3"
         cx="-146.87741"
         cy="100.5686"
         r="4.5785875"
         transform="scale(-1,1)" />
      <circle
         style="fill:none;stroke:#000000;stroke-width:0.242283;stroke-opacity:1"
         id="path863-75-1"
         cx="-154.46446"
         cy="151.4752"
         r="4.5785875"
         transform="scale(-1,1)" />
    </g>
    <circle
       style="fill:none;stroke:#000000;stroke-width:0.242283;stroke-opacity:1"
       id="path863-9-3"
       cx="-158.38036"
       cy="212.41632"
       r="4.5785875"
       transform="scale(-1,1)" />
  </g>
</svg>
